<?xml version="1.0" encoding="utf-8"?>
<!-- Generator: Adobe Illustrator 23.0.2, SVG Export Plug-In . SVG Version: 6.00 Build 0)  -->
<svg version="1.1" id="Calque_1" xmlns="http://www.w3.org/2000/svg" xmlns:xlink="http://www.w3.org/1999/xlink" x="0px" y="0px"
	 viewBox="0 0 773 892" style="enable-background:new 0 0 773 892;" xml:space="preserve">
<style type="text/css">
	.st0{fill:none;}
	.st1{fill:#949494;}
	.st2{fill:url(#SVGID_1_);}
	.st3{fill:url(#SVGID_2_);}
	.st4{fill:url(#SVGID_3_);}
	.st5{fill:#F2F2F2;}
	.st6{fill:#080833;}
	.st7{fill:none;stroke:#080833;stroke-width:2.5;stroke-linecap:round;stroke-linejoin:round;}
	.st8{fill:none;stroke:#080833;stroke-width:2.5;stroke-linecap:round;stroke-miterlimit:10;}
	.st9{fill:#D3D3D3;}
</style>
<pattern  y="892" width="12" height="12" patternUnits="userSpaceOnUse" id="New_Pattern" viewBox="2 -14 12 12" style="overflow:visible;">
	<g>
		<rect x="2" y="-14" class="st0" width="12" height="12"/>
		<rect x="2" y="-14" class="st0" width="12" height="12"/>
		<rect x="2" y="-14" class="st0" width="12" height="12"/>
		<circle class="st1" cx="14" cy="-5" r="2"/>
		<circle class="st1" cx="8" cy="-2" r="2"/>
		<circle class="st1" cx="2" cy="-5" r="2"/>
		<circle class="st1" cx="14" cy="-11" r="2"/>
		<circle class="st1" cx="8" cy="-8" r="2"/>
		<circle class="st1" cx="2" cy="-11" r="2"/>
		<circle class="st1" cx="8" cy="-14" r="2"/>
	</g>
</pattern>
<g id="Layer_2">
	<g id="Shadows">
		<pattern  id="SVGID_1_" xlink:href="#New_Pattern" patternTransform="matrix(-1 0 0 -1 -15576.8203 -15476.96)">
		</pattern>
		<polygon class="st2" points="217.7,189.6 207.4,199.1 190.3,220.5 178.8,241.4 176.1,251.1 179.2,256.4 181.6,258.1 178.9,263.6 
			173.1,278.7 169.9,290.4 169.9,301 172.5,309.6 178.3,317.5 184.9,323.2 200.5,331.8 199.4,308.5 199.4,290.1 200.8,267.3 
			203.5,248.1 206.2,231.4 214.6,199.8 		"/>
		<pattern  id="SVGID_2_" xlink:href="#New_Pattern" patternTransform="matrix(-1 0 0 -1 -15576.8203 -15476.96)">
		</pattern>
		<path class="st3" d="M210.7,214.5c1.2-4.6,10.2-15.5,21.7-15.3s40.3,15.5,55.6,55.8c-6.3-15.2-11.6-30.9-15.8-46.8v-14l4.8-11.3
			l9.4-9.4l8.2-2.7l14.1,3l8.3,5.7l-4.8-9.4l-12-18.8l-8.5-6.7l-5.3-1.8l-2.1,18.6l-1,6l-6.1,4.9l-9.9,3.8l-12.8,2.4l-12.8-1.2
			l-13.3-5.2l-4.2,4.8l-8,20.1L210.7,214.5z"/>
		<pattern  id="SVGID_3_" xlink:href="#New_Pattern" patternTransform="matrix(-1 0 0 -1 -15576.8203 -15476.96)">
		</pattern>
		<path class="st4" d="M318,283.4c1.8,4.1,3.4,78.8-47.5,87.7c15.4,9.8,63.8-1.6,63.8-1.6l10.7-13.7l4-5.3l-1-33.3l-17.8-18.1
			L318,283.4z"/>
	</g>
	<g id="Vector">
		<path class="st5" d="M772.9,337.3c-2.7-91-62-183.4-142.3-217.1c-80.5-33.5-181.7-8.4-282.3-7.6c-12.7,0.1-25.4-0.2-38.1-0.7
			l-8.5,6.2l-13.4,9l-2-15.1l0.5-1.3l-1.6-0.1c5.9,17.6-1.4,43.7-1.4,53.7c0,1.9-0.7,3.7-1.9,5.2l1.5-1l0.8-5.1l1.9-13.8l1.2-7.2
			l9.3,6.5l16.7,23.8l2.9,5.9c24,15.7,45,54.5,45,60.8c0,1.4-1.4,3.7-3.9,6.4c3.1,4,14.8,21.2,16.6,25.2
			c3.8-3.2,126.2-105.8,128.2-107.2s5.5-1.3,6.9-0.4c2.3,1.5,3.1,4.5,1.9,6.9c-1.1,2-16.3,15.4-16.3,15.4c1.2,1.5,7.6,17.6-0.5,25.2
			c-5.5,5.1-11.8,6.9-17.8,3.7c-4,4.3-99.6,110-116.3,110c-3.1,0-9.2-4.4-16.2-10.9l4.4,5.3c1.5,19.6,1.2,33.6-1,36.6
			c-12.6,16.8-102.7,30.3-140,3.5c-2.9-2.1-5.3-12.1-6.6-26.9c-18.7-9.7-29.6-18.6-31-34.5c-0.9-10.5,10.5-37,12.3-39.6l0,0
			c-2.5-1.7-4.3-3.2-4.9-4.3c-4.2-7.1,17.3-45.5,42.6-65.1l-0.7,3.1c2.8-6.9,6-13.5,9.8-19.9c-8.6-5.4-14-12.7-14-23.4
			c0-8.6,4.7-24.2,7.7-41.5c-53.4-2.6-101.6-1.3-138,19.6C20.2,163.1-7.6,259.7,1.8,342.5c9.2,83,55.5,152.5,97.9,222.8
			c42.4,70.4,80.6,141.6,144.2,181c63.7,39.6,152.5,47.4,227.3,19.1c74.6-28.3,135.3-92.9,192.6-170
			C721.2,518.2,775.4,428.5,772.9,337.3z"/>
		<path class="st5" d="M200.4,268.1l0.7,0.4c0-0.4,0.1-0.8,0.1-1.2l-0.2,1.1L200.4,268.1z"/>
		<path class="st5" d="M238.8,176.8l17,1.6l13.5-2.2l3-2.1c-5.7,2.3-11.8,3.5-17.9,3.6c-10.7,0-19.6-2.3-26.3-6.5l1.1,1.4
			L238.8,176.8z"/>
		<path class="st6" d="M206.9,357.2c0.6,13.1,0,509.7,0,509.7h34.7l53-326.3"/>
		<path class="st7" d="M181.8,257.6c-1.8,2.6-13.2,29.2-12.3,39.7c1.3,16,12.3,24.9,31.1,34.6"/>
		<path class="st8" d="M219.4,188.2c-25.3,19.5-46.7,58-42.6,65.1c2,3.3,12.4,9.2,24.3,14.6"/>
		<path class="st8" d="M315.6,35.4c8.4,12.5,11.5,30.4,7.1,48.7c-5.2,21.1-19.1,37.1-35.1,42.8"/>
		<path class="st8" d="M348,317.1c1.5,19.6,1.2,33.6-1,36.6c-12.6,16.8-102.7,30.3-140,3.5c-10.8-7.7-14.7-127.5,21.1-186"/>
		<path class="st8" d="M286.4,141.7c11.5,4.8,21.3,18.2,29.6,36.1"/>
		<polyline class="st8" points="206.9,867 206.9,890.8 288.3,890.8 288.3,877.3 241.6,867 		"/>
		<polyline class="st8" points="288.3,862.7 288.3,890.8 373.5,890.8 373.5,879.9 321.7,862.7 		"/>
		<path class="st7" d="M356.7,244.7c1.6,1.7,15.2,21.6,17.2,25.9c3.8-3.2,126.2-105.8,128.2-107.2s5.5-1.3,6.9-0.4
			c2.3,1.5,3.1,4.5,1.9,6.9c-1.1,2-16.3,15.4-16.3,15.4c1.2,1.6,7.6,17.6-0.5,25.2c-5.5,5.1-11.8,6.9-17.8,3.7
			c-4,4.3-99.6,110-116.3,110c-7.7,0-34.2-27.2-46.1-47.6"/>
		<path class="st8" d="M272.2,199.7c0,33,26,79,35,79s54-33,54-41s-35-67-65-67C284.2,170.7,272.2,183.7,272.2,199.7z"/>
		<path class="st8" d="M269.2,67.7c17.2,0.1,48.5-33.7,48.5-35c0-3-5.3-18.9-36.2-18.9c-22,0-56.8,15.4-56.8,66.2
			c0,26.1-10.2,54-10.2,66.6c0,19.1,15.4,31.2,39.8,31.2c11.8,0,29.5-5.8,29.5-15.3c0-13.9,14.3-59.2-13-69"/>
		<path class="st8" d="M274,92.1c-1.6,1.1-3.5,1.6-5.5,1.6c-6.2,0-11.3-5.8-11.3-13.1s5-13,11.3-13c1.2,0,2.3,0.2,3.4,0.6"/>
		<rect x="532.5" class="st9" width="198" height="146.4"/>
		<circle class="st9" cx="631.5" cy="272.5" r="84.3"/>
		<path class="st6" d="M206.9,357.2c3,1.5,6,3.3,8.8,5.2l12.2,5.9l1.7,6.4l69.4,159.9l-4.5,6"/>
		<path class="st6" d="M347,353.7c-11.3,15.1-85.6,27.6-127.5,10.3l97.3,228.5l-28.4,270.2h33.4c0,0,65-234.3,65-244.7
			S347,353.7,347,353.7z"/>
	</g>
</g>
</svg>
