<?xml version="1.0" encoding="utf-8"?>
<!-- Generator: Adobe Illustrator 23.0.2, SVG Export Plug-In . SVG Version: 6.00 Build 0)  -->
<svg version="1.1" id="Calque_1" xmlns="http://www.w3.org/2000/svg" xmlns:xlink="http://www.w3.org/1999/xlink" x="0px" y="0px"
	 viewBox="0 0 1792 1792" style="enable-background:new 0 0 1792 1792;" xml:space="preserve">
<style type="text/css">
	.st0{fill:none;}
	.st1{fill:#949494;}
	.st2{fill:url(#SVGID_1_);}
	.st3{fill:url(#SVGID_2_);}
	.st4{fill:none;stroke:#000000;stroke-width:2.5;stroke-linejoin:round;}
	.st5{fill:none;stroke:#000000;stroke-width:8;stroke-linecap:round;stroke-miterlimit:10;}
	.st6{fill:none;stroke:#000000;stroke-width:2.5;stroke-linecap:round;stroke-linejoin:round;}
	.st7{fill:none;stroke:#000000;stroke-width:2.5;stroke-miterlimit:10;}
	.st8{fill:none;stroke:#000000;stroke-width:0;stroke-linecap:round;stroke-linejoin:round;}
	.st9{opacity:0.5;fill:#E8E8E8;enable-background:new    ;}
</style>
<pattern  x="296" y="1496" width="12" height="12" patternUnits="userSpaceOnUse" id="New_Pattern" viewBox="2 -14 12 12" style="overflow:visible;">
	<g>
		<rect x="2" y="-14" class="st0" width="12" height="12"/>
		<rect x="2" y="-14" class="st0" width="12" height="12"/>
		<circle class="st1" cx="14" cy="-11" r="2"/>
		<circle class="st1" cx="8" cy="-14" r="2"/>
		<circle class="st1" cx="2" cy="-11" r="2"/>
		<circle class="st1" cx="14" cy="-5" r="2"/>
		<circle class="st1" cx="8" cy="-8" r="2"/>
		<circle class="st1" cx="2" cy="-5" r="2"/>
		<circle class="st1" cx="8" cy="-2" r="2"/>
	</g>
</pattern>
<title>Artboard 1</title>
<g id="Shadows">
	<pattern  id="SVGID_1_" xlink:href="#New_Pattern" patternTransform="matrix(1 0 0 -1 7 -15219)">
	</pattern>
	<path class="st2" d="M750.1,772.9c0,18.8-36.8,311.7,149.9,421.3c-63.7,11.9-104.7,11.6-104.7,11.6l-18.8-2.1l-17.5-24.5l-87-122.4
		l-10.9-15.5l-2.2-75.3v-23.6l12.2-26.8l31.4-85.3l18.6-4.4l11.3-17.6L750.1,772.9z"/>
	<pattern  id="SVGID_2_" xlink:href="#New_Pattern" patternTransform="matrix(1 0 0 -1 7 -15219)">
	</pattern>
	<path class="st3" d="M1096.1,650c10.7,22.5,66,215.3,17.1,352.1c-11.6-9.4-32.4-29.4-32.4-29.4l-29.4-32.4l-0.2-12.7l-2.7-103.2
		l-8.5-71.8l-16.1-75.1l-13-31.3l-26.1-48.5l-9.2-11.5l28.6,5.8l46.6,23.3L1096.1,650z"/>
</g>
<g id="Vector">
	<path class="st4" d="M629.6,965l-24.5,10.9l-52.3,14.2l-56.7,13.7l-71.1,4.7l10.7,7.8c20.1,28.1,6.1,18.6,6.1,18.6
		s-9.9,46.6-14,62.8c0,0-48.6-38.1-104.2-88.8l-244.3,63.7v360l321.7,178.6l534.8-141.8l6.7-365.6L629.6,965z"/>
	<line class="st5" x1="1052.3" y1="594.4" x2="1116.8" y2="596.2"/>
	<line class="st5" x1="894.7" y1="590.5" x2="951" y2="592"/>
	<path d="M671.7,935.4c10.1-11.5,280.1,100.1,318.5,153.7c38.5,53.6-228.9,458.7-337.7,539.5c-12.2-8.3-41.6-29.4-41.6-29.4
		s91.5-280.9,174.7-375.7c-21.1-5.8-89.6-23.7-89.6-23.7l-75.1-235C632.9,959.8,658.4,950.5,671.7,935.4z"/>
	<path class="st6" d="M697.9,743.8c29,36.2,72,80.5,93.8,75.5c38.9-8.5,160-129.6,191.5-163.1c21.2,5.8,45.8-7.5,57.3-32.1
		c12.6-27,4.7-57.3-17.6-67.8c-22.4-10.5-50.6,2.9-63.3,29.8c-6.1,12.7-7.6,27.2-4.1,40.9c-30.8,14.7-120.8,57.7-139,66.1
		c-8.8-77.4-23.3-115.9-38.8-137.3"/>
	<path class="st6" d="M622.1,390.7c72.4,3.6,175.4,109.2,172.4,131.8c-2.7,20.6-52.2,88.4-99.6,106.6"/>
	<path class="st6" d="M423.7,1009.4c96.8-3.6,225.1-42.2,248-74c23.8-34.1,81.4-537-120.2-593"/>
	<path class="st6" d="M305.4,747.4c-0.3,35.1,0.8,68.9,2.8,99.7"/>
	<path class="st6" d="M464.5,344.7c-33.5,11-60.4,33.5-82,63.8"/>
	<path class="st6" d="M217.2,592.3c-26.7,65.7-65.9,186.4-51.7,228.2c33.1,97.2,262.1,277,262.1,277c4.1-16.2,14-62.8,14-62.8
		S285.3,817.3,277.1,801c11.4-17.7,57.4-107.2,70.6-166.6"/>
	<path class="st6" d="M516.1,393.5c-24.1,1.2-51.6-3.8-51.6-14.4V257.5"/>
	<path class="st6" d="M551.5,326.6v15.8"/>
	<path class="st6" d="M551.5,326.6c41.8-6.3,73.7-59,72.5-122.5c-0.2-11-1.4-22.1-3.6-32.9"/>
	<path class="st6" d="M459.9,211.1c-0.6,0-1.2,0-1.8,0c-13.1,0-23.7,10.6-23.7,23.7c0,13.1,10.6,23.7,23.7,23.7c1.7,0,3.4-0.2,5-0.5
		"/>
	<path class="st7" d="M642.6,163.3c26.3-3.6,36.3-18.9,36.3-29.6c0-18.2-16.2-25-16.2-36.5c0-20.3,28.4-17.8,28.4-54.7
		C691,13.4,668.8,0,650.5,0c-32.9,0-51.3,26.3-81,26.3c-31.9,0-39.4-18.2-72.9-18.2c-64.7,0-58.1,66.6-71.4,87.6
		c-16.8,26.3-27.8,53.3-27.8,72.4c0,23.8,10,38.6,21.9,47.6"/>
	<line class="st0" x1="647.8" y1="326.6" x2="659.6" y2="329"/>
	<path class="st6" d="M379.2,612.5c-5.2,10.8-10.4,17.9-14.7,19.5c-24.9,9.6-156.3-9.6-160.3-67.3c-4-57.7,112.8-189.1,165.1-165.2
		c4.5,2.1,8.7,4.8,12.4,8.1"/>
	<path class="st6" d="M381.6,407.6c4.4,4,8.2,8.6,11.2,13.8"/>
	<polygon class="st7" points="935.7,1740.8 985.9,1719.8 1090.2,1719.8 1096.9,1737 956.7,1792 	"/>
	<polygon class="st7" points="611.7,1598.2 655.3,1630.6 708.5,1720.4 697.1,1734.9 578.3,1642.3 	"/>
	<path d="M1707.2,656.9c10.1,33.2-74.8,40-79.7,24.2C1622.7,665.2,1696.4,621.4,1707.2,656.9z"/>
	<path d="M1693.9,742.5c15.9,30.8-66.4,52.9-74,38.1C1612.3,765.9,1676.8,709.5,1693.9,742.5z"/>
	<path d="M1698.7,843c15.9,30.8-66.4,52.9-74,38.1C1617.1,866.4,1681.8,810,1698.7,843z"/>
	<path d="M1701.8,936.1c14.4,28-57.3,46.6-64.3,33.1C1630.7,955.7,1686.4,906.1,1701.8,936.1z"/>
	<path d="M1710.9,1039.4c14.4,28-57.3,46.6-64.3,33.1C1639.7,1059,1695.4,1009.4,1710.9,1039.4z"/>
	<path d="M1588.3,1174.2c27.3-15.8,49.2,55.1,36.1,62.6S1559.1,1191,1588.3,1174.2z"/>
	<path d="M1586.8,1091.3c20.9-23.6,64.1,36.6,54.1,47.9C1630.9,1150.5,1564.4,1116.5,1586.8,1091.3z"/>
	<path d="M1589.6,994.1c20.9-23.6,64.1,36.6,54.1,47.9C1633.7,1053.3,1567.2,1019.4,1589.6,994.1z"/>
	<path d="M1574.8,913.2c16.2-27.1,69.8,24,62.1,37C1629.2,963.1,1557.6,942.1,1574.8,913.2z"/>
	<path d="M1553.4,801.4c20.3-24.1,65.1,34.9,55.4,46.4S1531.7,827.3,1553.4,801.4z"/>
	<path d="M1557.3,682.9c22.3-22.2,61.6,40.7,50.9,51.3S1533.4,706.7,1557.3,682.9z"/>
	<path d="M1629.1,531.4c22.3-22.3,61.6,40.7,50.9,51.3S1605.1,555.1,1629.1,531.4z"/>
	<g>
		<path d="M1533.9,1387c19-31.9,27.2-85.1,27.2-166.2c0.1-40.8-53-79.3-75.6-139.5c-6-15.9-10.1-59.2-10.1-80.3
			c0-141.6-84.1-168.1-127.1-168.1c-83.7,0-130.9,77.4-130.9,140.9c0,56.1,23.8,106.1,53,148.2c15.8-19.3,44.2-22.1,63.5-6.4
			c19.3,15.8,22.1,44.2,6.4,63.5c-3.9,4.8-8.8,8.7-14.2,11.5c24.1,26.9,44.1,47.8,49,61.8c16.9,46.7,13.7,68.5,19.1,91.7
			c4,17.1,9.6,31.3,16.3,43"/>
		<line class="st0" x1="1533.9" y1="1387" x2="1535.8" y2="1387"/>
		<g>
			<path d="M1646,1211.6c25.2-117.5,7.8-212-7.6-295.4c-12.8-69.5-24.9-135-10.3-203.2c7.2-34,29-115.6,77.2-139.7l-8.2-16.3
				c-55.2,27.7-79.1,115.7-86.8,152.2c-15.4,71.6-3,139,10.2,210.3c15.8,85.7,32.1,174.4,7.7,288.3c-12.6,58.9-45,115.5-99,173
				l3.9,3.7h17.4C1601.3,1328,1633.4,1269.9,1646,1211.6z"/>
			<path d="M1682.9,1384.5h-132.4h-225.6c-2.3,0-4.7,0.4-6.9,1.1c-5.6,1.8-10.1,5.7-12.7,10.9s-3.1,11.2-1.2,16.7l89,270.1
				c3,9,11.3,15,20.8,15c0,0,0,0,0,0H1593c0,0,0,0,0,0c9.4,0,17.8-6,20.8-15l89.9-270c0.7-2.2,1.1-4.6,1.1-6.9
				C1704.8,1394.3,1695,1384.5,1682.9,1384.5z M1698.9,1411.7l-89.9,270c-2.3,6.9-8.7,11.5-16,11.5c0,0,0,0,0,0h-179.1c0,0,0,0,0,0
				c-7.3,0-13.7-4.6-16-11.6l-89-270.1c-1.4-4.3-1.1-8.8,0.9-12.8c2-4,5.5-7,9.8-8.4c1.7-0.6,3.5-0.9,5.3-0.9h213.6h7.4h137
				c9.3,0,16.9,7.6,16.8,16.9C1699.7,1408.2,1699.4,1410,1698.9,1411.7z"/>
		</g>
		<path class="st8" d="M1410.4,1387"/>
	</g>
	<path d="M621,964.7c-46.6,24-132.9,38.7-198.1,43.8l18.8,26.2c0,0-9.9,46.6-14,62.8c0,0-30.8-24.2-71.5-59.6
		c53.7,145.7,284.3,327.9,299.3,336.9c8.8,25.5,281.1,368.2,281.1,368.2l53.5-22.3L621,964.7z"/>
	<polygon class="st9" points="1328.3,926.6 942.4,1016.5 942.4,141.6 1328.3,40.2 	"/>
	<path class="st6" d="M587.7,192.5c-2.9,12.3,0.8,30,9.8,38.6"/>
	<path class="st6" d="M544.3,234.7c-1.3,9.1,5.6,17,14.6,19.2"/>
	<ellipse cx="558.7" cy="201.4" rx="4.5" ry="6.6"/>
</g>
</svg>
