<?xml version="1.0" encoding="utf-8"?>
<!-- Generator: Adobe Illustrator 23.0.3, SVG Export Plug-In . SVG Version: 6.00 Build 0)  -->
<svg version="1.1" id="Calque_1" focusable="false" xmlns="http://www.w3.org/2000/svg" xmlns:xlink="http://www.w3.org/1999/xlink"
	 x="0px" y="0px" viewBox="0 0 150 150" style="enable-background:new 0 0 150 150;" xml:space="preserve">
<style type="text/css">
	.st0{fill:#FFFFFF;}
</style>
<path class="st0" d="M147.2,55.9c1.1-0.9,2.8-0.1,2.8,1.4v59.9c0,7.8-6.3,14.1-14.1,14.1H14.1C6.3,131.2,0,125,0,117.2V57.3
	c0-1.5,1.7-2.3,2.8-1.4C9.4,61,18.1,67.5,48,89.2c6.2,4.5,16.6,14,27,13.9c10.5,0.1,21.1-9.6,27-13.9
	C131.9,67.5,140.6,61,147.2,55.9z M75,93.8c6.8,0.1,16.6-8.6,21.5-12.1C135.4,53.5,138.3,51,147.3,44c1.7-1.3,2.7-3.4,2.7-5.5v-5.6
	c0-7.8-6.3-14.1-14.1-14.1H14.1C6.3,18.8,0,25,0,32.8v5.6c0,2.2,1,4.2,2.7,5.5c9,7,11.9,9.5,50.8,37.7C58.4,85.2,68.2,93.9,75,93.8
	L75,93.8z"/>
</svg>
