<?xml version="1.0" encoding="utf-8"?>
<!-- Generator: Adobe Illustrator 23.0.2, SVG Export Plug-In . SVG Version: 6.00 Build 0)  -->
<svg version="1.1" id="Calque_1" xmlns="http://www.w3.org/2000/svg" xmlns:xlink="http://www.w3.org/1999/xlink" x="0px" y="0px"
	 viewBox="0 0 1792 1792" style="enable-background:new 0 0 1792 1792;" xml:space="preserve">
<style type="text/css">
	.st0{fill:none;}
	.st1{fill:#949494;}
	.st2{fill:url(#SVGID_1_);}
	.st3{fill:url(#SVGID_2_);}
	.st4{fill:url(#SVGID_3_);}
	.st5{fill:url(#SVGID_4_);}
	.st6{fill:url(#SVGID_5_);}
	.st7{fill:#F8F8F8;}
	.st8{fill:none;stroke:#000000;stroke-width:2.5;stroke-linecap:round;stroke-miterlimit:10;}
	.st9{fill:none;stroke:#FFFFFF;stroke-width:4;stroke-linecap:round;stroke-miterlimit:10;}
	.st10{fill:none;stroke:#000000;stroke-width:7;stroke-linecap:round;stroke-miterlimit:10;}
	.st11{fill:none;stroke:#000000;stroke-width:2.5;stroke-linecap:round;stroke-linejoin:round;}
</style>
<pattern  x="423.8" y="1285.4" width="12" height="12" patternUnits="userSpaceOnUse" id="New_Pattern" viewBox="2 -14 12 12" style="overflow:visible;">
	<g>
		<rect x="2" y="-14" class="st0" width="12" height="12"/>
		<rect x="2" y="-14" class="st0" width="12" height="12"/>
		<rect x="2" y="-14" class="st0" width="12" height="12"/>
		<circle class="st1" cx="14" cy="-5" r="2"/>
		<circle class="st1" cx="8" cy="-2" r="2"/>
		<circle class="st1" cx="2" cy="-5" r="2"/>
		<circle class="st1" cx="14" cy="-11" r="2"/>
		<circle class="st1" cx="8" cy="-8" r="2"/>
		<circle class="st1" cx="2" cy="-11" r="2"/>
		<circle class="st1" cx="8" cy="-14" r="2"/>
	</g>
</pattern>
<g>
	<title>hiker-man-monochrome</title>
	<g id="Layer_2">
		<g id="shadows">
			<pattern  id="SVGID_1_" xlink:href="#New_Pattern" patternTransform="matrix(-1 0 0 -1 -16267.7402 -14362.5703)">
			</pattern>
			<path class="st2" d="M969.2,549.5c1.2,19,3.8,189.7-58,213.2c69.3,4,92.7-5.5,92.7-5.5l4-15.9l4.9-15.7l4.8-32.1l3.3-52.7
				l-2.4-50.9l-9.8,4l-9.5-4.5l-21.6-23.2L969.2,549.5z"/>
			<pattern  id="SVGID_2_" xlink:href="#New_Pattern" patternTransform="matrix(-1 0 0 -1 -16267.7402 -14362.5703)">
			</pattern>
			<path class="st3" d="M795.1,347.9c-7.6,4.4-58.2,63.5-57.1,105.4c13.5,10.9,41.9,27.4,41.9,27.4l12-22.3l16.1-24.2l22-19l-5.5-19
				l-11.1-30.4L795.1,347.9z"/>
			<pattern  id="SVGID_3_" xlink:href="#New_Pattern" patternTransform="matrix(-1 0 0 -1 -16267.7402 -14362.5703)">
			</pattern>
			<polygon class="st4" points="836.7,401.4 836.7,410.3 852.7,401.1 893.7,386.7 894.9,375.3 855.6,376.7 839,385.8 			"/>
			<pattern  id="SVGID_4_" xlink:href="#New_Pattern" patternTransform="matrix(-1 0 0 -1 -16267.7402 -14362.5703)">
			</pattern>
			<polygon class="st5" points="951.3,377 1045.5,376.4 1057.4,382.9 1064.6,397.8 1063.8,473.8 1037.9,450.8 1006.4,436.5 
				980.8,434.2 972.7,420.5 955.6,400.2 946.9,397.6 			"/>
			<pattern  id="SVGID_5_" xlink:href="#New_Pattern" patternTransform="matrix(-1 0 0 -1 -16267.7402 -14362.5703)">
			</pattern>
			<polygon class="st6" points="1063.8,629.7 1064.6,704.2 1063.8,778.4 1057.5,793.7 1039.8,800.1 1018.7,798.4 1005.6,744.4 
				1013.3,728.6 1020.8,657.4 1020,590.2 1026,587.5 			"/>
		</g>
		<g id="vector">
			<path class="st7" d="M1339.1,344.8c-103.8-59.1-220.7-83.8-341.7-93.6l7.2,16.5l-1.6,18.2l-5.8,13.4L981,309.7l-11.4,3.8
				l-10.5,26.1l-7.8,37.3l51.4-0.6l49.3,1.4l10.8,11.4l1.7,21.3l-2.3,61.1l13.5,15.5l13,18.8l3.5,12.1l-5.9,14.6l14.7,18.3
				l41.3,57.5l46.4,66.1l32,49.9l9.7,12.7l23.5,13.3l8.1,16.7l-1.6,18.7l-8.8,13.5l-15.6,7.5l-19-1.9l-14-10.8l-9.3-25.8l-52.2-52.3
				l-77.9-86.2l0.8,47.4v73.3l-0.8,32.3l-9.4,11.9l-8.6,3.9L1016,799l-243.4-38.5l-7.2-2.8c-2.8-0.6-5.5-1.6-8-3l0,0l0,0
				c-0.4-0.3-0.7-0.5-1-0.9c-1.1-1.3-2.3-4.8-3.5-10.2l0,0c-2.6-11.9-5.2-33-6.1-59.1l-0.4-3.8l0.1-7.4c-0.2-11.4,0-23.7,0.5-36.4
				l0.2-13.3l1.4-11.1c1.1-13.6,2.8-27.6,5.1-41.5v-0.1v-0.1c2-12.2,4.6-24.5,7.6-36.5V534l0,0c4.6-18.2,10.9-36,18.7-53.1l0,0
				c-8.7-3.7-17-8.3-24.7-13.8l0,0l-0.3-0.2c-1.7-1.2-3.5-2.4-5.1-3.8l-14.6-10.6l-10.6-12.4c-2-2.2-3.9-4.4-5.7-6.4l0,0l0,0
				c-2.7-3.1-5.1-6.5-7.3-10l-3.1-4.5l0.3-1.5c-0.1-0.4-0.2-0.8-0.3-1.2c0-3.5,0.9-6.9,2.6-9.9l0,0l-34.2-41.2l-22.3-39.1l-2.7-19.1
				l4.9-14l22.3-23.7l28.9-21.8c-136.4,6.9-260.7,31-330.4,106.9c-89.4,97.4-88.1,280.9-101.6,448.3c-13.5,167.4-42.2,319,1.3,460.9
				c35.6,116.8,120.3,227.4,223.6,274.8c163.5-113.2,475.3-279.3,773.7-394.1c5.3-4.7,10.7-9.5,16.1-14.3
				c122.3-108.1,285.5-242.9,305.1-390.3C1615.2,592.2,1491,431.6,1339.1,344.8z"/>
			<path class="st8" d="M861.8,270.7c-2.3,8-3.5,16.2-3.4,24.5c0,30.9,15.6,57.2,37.4,67l-2.8,26.8"/>
			<path class="st8" d="M913.7,414.6c13.4,3.1,28.1,3.8,29.4-0.5c1.9-6.8,12.5-57.2,16.2-74.9c4.7-7.6,8-15.9,9.9-24.6"/>
			<path d="M1386.9,1103.6c-15.8-5.4-67.7-74-67.7-155.4c0-94.5,100.1-273.5,109.6-337.3c6.1-40.5,33.4-397.8,240.7-397.8
				c113.1,0,122.5,221.1,122.5,319.9c0,231-335.9,427.7-335.9,547.7C1433.6,1090,1410.5,1097.6,1386.9,1103.6z"/>
			<path class="st9" d="M1412.4,1095c0-185.2,138.2-522.7,259.8-641.5"/>
			<path d="M614.2,1466c-10.6-3.1-39.4-39.8-39.4-87.1c0-45.5,12.8-112,12.8-173.6c0-34.3-12.8-46.4-12.8-87.2
				c0-65,61.6-84.8,83.2-84.8c31.8,0,48.8,27.2,48.8,41.6c0,20.1-5.7,35.3-5.7,57.6c0,43.5,15.2,48.9,13.6,86.4
				c-4.7,109.5-50.2,216.6-90.2,240.8L614.2,1466z"/>
			<path d="M614.2,1466c13-11.2-59.7-365.3-122.7-427.9c-68.6-68.2-124.9-104.2-143.6-126.5c-33-39.6-54-189.1-199.4-189.1
				c-38.4,0-129,31.8-145.3,166.3c-5.3,44.2-15,111.7,76.9,209.6c61.9,66,139.3,43.2,215,114.7c54.5,51.4,46.8,129,97.7,194.6
				C433.5,1460,539.1,1530.6,614.2,1466z"/>
			<path class="st9" d="M596.3,1474.4c0-88.9-280.3-489.9-392.5-547.3"/>
			<path class="st9" d="M614.2,1466c-2.8-21.1-14.6-200,18.8-265.2"/>
			<path class="st10" d="M392.8,1630.4c83.9-119.8,833.2-528.5,1283.4-603.9"/>
			<path class="st8" d="M836.2,410.7v-12c0-12.6,10.2-22.8,22.8-22.8h35.3"/>
			<path class="st8" d="M1063.8,629.7v146.6c0,12.6-10.2,22.8-22.8,22.8h-32.4"/>
			<path class="st8" d="M951.5,375.9h89.4c12.6,0,22.8,10.2,22.8,22.8v74.2"/>
			<path class="st8" d="M855.8,1490.8v49.3h-134v-20.9l83-38.1L855.8,1490.8z"/>
			<path class="st8" d="M1146.4,1443.5c6.8,15.2,22.8,54.5,22.8,54.5l-66.8,42h-60.6l-7.1-23.2l76.1-58.2L1146.4,1443.5z"/>
			<path class="st11" d="M876,180.1c0.9-4.2,0.1-8.6-2.3-12.2c-7.4-10.2-28.3-7.8-46.7,5.4c-7,4.9-12.9,11.1-17.4,18.3
				c-0.6-0.3-1.2-0.4-1.9-0.4c-8.9,0-157.2,79.3-155.8,115.9c1.2,31.4,37.9,79.1,59.4,99.1"/>
			<path class="st11" d="M779.5,347.1c-15.2-15.2-36.9-33.5-42.3-38.5c9.3-4.9,83.7-78.6,92.1-86.9c8.9-1.9,17.2-5.7,24.5-11.1
				c12.4-9,20.5-20.6,22.1-30.4"/>
			<path class="st8" d="M830,415.1c-8.4-33.3-24.1-67.5-40.5-69c-30.4-2.8-83.1,54.3-81,70.5c1.4,10.7,35.8,49.3,71.4,64.1"/>
			<path class="st8" d="M947.2,396.2c13.7,8.2,25.2,21.7,34.6,38.8"/>
			<path class="st8" d="M1018.4,589.9c5.2,76.7-2.8,148-14.5,157.2c-26.6,20.9-234.3,21.8-247.6,6.6
				c-12.8-14.6-42.2-339.5,136.6-364.7"/>
			<path class="st11" d="M939.5,273.1c4.4,7.3,9.1,14,13.9,15.6c0.3,0.1,0.6,0.2,0.9,0.3"/>
			<path class="st11" d="M828,223c-1.6,2-2.5,4.6-2.6,7.2c0,17.3,0.5,40.5,36.4,40.5c2.4-8.3,11.4-26.6,21.6-34.7
				c1.9,0.8,6.6,2.8,12.3,5.1"/>
			<path class="st11" d="M973.3,312c8.1-0.9,31.4-4.3,31.4-40.9c0-14.4-13.8-24.9-13.8-32.9c0-8,4.7-22.4-5.8-32.6
				c-12.8-12.5-33.3-7.3-51.6-7.3c-17.2,0-26.7-20-50.2-20c-2.5-0.1-5,0.6-7.1,1.9"/>
			<path class="st8" d="M952.4,290.8c5.5-6.1,15-6.6,21.1-1c6.1,5.5,6.6,15,1,21.1c-1.5,1.6-3.3,2.9-5.3,3.7"/>
			<line class="st10" x1="1215.6" y1="801.7" x2="1081" y2="1469.2"/>
			<line class="st10" x1="1284.9" y1="458.5" x2="1229.5" y2="733.1"/>
			<path class="st8" d="M1026,586.2c26.6,30.7,117.5,136.8,168,180.8c-0.1,10.3,4,20.1,11.4,27.3c14.1,14.1,35.7,15.3,48.2,2.8
				c12.6-12.5,11.4-34.2-2.7-48.2c-5.7-5.7-12.9-9.5-20.9-10.9c-24.1-38.9-103.2-154.9-143.5-205.4"/>
			<path class="st8" d="M963.7,442.9c49.1-36.5,130,51.7,128.7,74.9s-63.5,74.7-84.8,74.7C981.6,592.7,921.9,474,963.7,442.9z"/>
			<path d="M1007.8,741.3c-0.9,2.2-2.2,4.2-4,5.8c-16.6,13-103.7,18.3-170.1,16.7c31.9,158.4,252.4,674.4,269.9,701.8
				c13.6,2.9,44.8-10.7,49.6-19.5C1157.9,1437.6,1027.1,807.9,1007.8,741.3z"/>
			<path d="M763.3,757.2c0.6,54.6,10,673.8,26.6,729c15.2,7.6,55,9.5,68.3,3.8c12-5.1,82.5-594.6,95.8-730.7
				C891.4,766.5,791.7,765.4,763.3,757.2z"/>
		</g>
	</g>
</g>
</svg>
