<?xml version="1.0" encoding="utf-8"?>
<!-- Generator: Adobe Illustrator 23.0.3, SVG Export Plug-In . SVG Version: 6.00 Build 0)  -->
<svg version="1.1" id="Calque_1" focusable="false" xmlns="http://www.w3.org/2000/svg" xmlns:xlink="http://www.w3.org/1999/xlink"
	 x="0px" y="0px" viewBox="0 0 1792 1792" style="enable-background:new 0 0 1792 1792;" xml:space="preserve">
<style type="text/css">
	.st0{fill:#110E66;}
</style>
<path class="st0" d="M401.1,1792H29.6V595.6h371.5V1792z M215.2,432.4C96.4,432.4,0,334,0,215.2C0,96.3,96.4,0,215.2,0
	s215.1,96.3,215.1,215.1C430.3,334,333.9,432.4,215.2,432.4z M1791.6,1792h-370.7v-582.4c0-138.8-2.8-316.8-193.2-316.8
	c-193.2,0-222.8,150.8-222.8,306.8V1792H633.8V595.6h356.3v163.2h5.2c49.6-94,170.8-193.2,351.5-193.2
	c376,0,445.1,247.6,445.1,569.2V1792H1791.6z"/>
</svg>
