<?xml version="1.0" encoding="utf-8"?>
<!-- Generator: Adobe Illustrator 23.0.3, SVG Export Plug-In . SVG Version: 6.00 Build 0)  -->
<svg version="1.1" id="Calque_1" xmlns="http://www.w3.org/2000/svg" xmlns:xlink="http://www.w3.org/1999/xlink" x="0px" y="0px"
	 viewBox="0 0 1179.9 316.9" style="enable-background:new 0 0 1179.9 316.9;" xml:space="preserve">
<style type="text/css">
	.st0{fill:#FFFFFF;}
	.st1{fill:#EC6630;}
</style>
<g>
	<g>
		<path class="st0" d="M100.8,117v17.9H19.3v70.9h81.3v17H19.3v90.8H0V117H100.8z"/>
		<path class="st0" d="M121.8,207.2c13.4-26,39.7-41.6,68.4-41.6c25.4,0,42.4,12.8,49.4,18.7c16.2,14.2,25.7,36,25.7,57.5
			c0,14.2-4.2,25.1-6.4,29.9c-12.3,27.9-40.2,45-70.1,45c-8.9,0-30.7-2-50-18.7c-17-15.1-26.8-38.8-25.1-61.7
			C114.2,226.1,117.3,216.1,121.8,207.2z M144.4,276.1c5.3,6.7,20.1,21.8,44.7,21.8c19.3,0,32.4-9.2,37.7-14
			c12.3-10.3,19.8-26.5,19.8-42.7c0-10.3-3.1-17.9-4.5-21.8c-9.2-21.2-29.3-35.2-52.8-35.2c-3.9,0-12.8,0.3-22.6,4.7
			c-19.5,8.4-33.2,27.9-34.1,49.4C132.1,245.1,132.9,261.1,144.4,276.1z"/>
		<path class="st0" d="M305.8,168.9v14c7.5-6.1,11.2-8.9,19.8-12.3c9.2-3.9,12.8-4.5,22.9-4.5v19.5c-5.3,0.3-15.9,0.3-26.5,9.2
			c-3.9,3.1-6.7,7-7.8,8.4c-6.4,9.5-7,17.6-7.3,29v81.5h-19.5V168.9H305.8z"/>
		<path class="st0" d="M381.2,168.9v13.7c0.8-1.4,2.5-3.4,5.3-5.9c4.5-3.9,17-11.2,33.8-11.2c12.8,0,25.4,4.7,35.2,12.8
			c5,3.9,8.9,8.7,13.1,13.1c4.5-6.7,7-9.5,9.8-12.3c5.6-5,19.3-13.1,39.4-13.1c6.1,0,28.5,1.1,42.7,17.6c11.2,13.1,12,28.5,12.8,45
			v85.2h-18.7v-85.7c-1.1-14-2-26.2-13.1-36c-8.9-7.5-19.3-7.8-23.5-7.8c-16.5,0-32.1,8.1-38,23.7c-1.7,4.7-2.2,9.8-2.5,20.1v85.7
			h-18.7v-80.4c-1.1-17.9-2.8-24.9-7.8-32.4c-4.2-6.4-13.1-16.8-31.8-16.8c-2.5,0-7.5,0.3-13.7,2.5c-10.1,3.9-17.9,12.3-21.2,22.3
			c-1.7,4.7-2.2,8.9-2.2,19.3v85.2h-19V168.9H381.2z"/>
		<path class="st0" d="M627.2,250.2c2,5.9,4.5,12.8,8.1,18.2c4.2,6.4,18.2,20.1,39.9,20.1c5.3,0,20.7-1.1,32.7-12.6
			c3.4-3.1,5.3-5.9,7.8-9.5l31.3,0.3c-4.7,10.9-7.3,14.8-11.2,19.8c-20.7,26.5-50,29.6-60.9,29.6c-8.4,0-27.1-1.7-45.5-15.1
			c-27.9-19.8-31.3-50-31.3-62c0-5.3,0.6-17,6.1-29.9c12.6-29,40.8-46.6,71.5-46.6c5,0,15.6,0.3,27.4,5c24.6,9.8,43.8,32.7,48,58.6
			c1.1,8.1,0.6,15.6,0,23.7L627.2,250.2z M721.6,223.6c-1.7-5.9-3.1-11.2-12-19.8c-5-4.5-15.6-13.7-34.1-13.7
			c-6.4,0-11.5,1.1-13.7,2c-15.6,4.2-24.3,14-27.6,19c-2.5,3.9-3.9,8.4-5.3,12.6H721.6z"/>
		<path class="st0" d="M876.1,163h45.5v150.8h-43.8v-12c-7.3,5.3-19.3,15.1-41.6,15.1c-9.5,0-26.8-2-44.4-18.2
			c-8.7-7.8-26.5-27.9-26.5-60.3c0-8.9,1.7-29.3,16.5-49.4c13.7-17.9,34.3-29,57-29c19.5,0,31.3,8.1,37.4,12.3V163z M844.5,272.8
			c19-0.3,34.1-15.4,34.1-34.3c-0.3-18.7-15.4-34.1-34.3-34.1c-18.7,0-34.1,15.6-34.1,34.3c0,8.9,3.6,17.6,10.3,24
			C826.6,268.9,835.6,272.8,844.5,272.8z"/>
		<path class="st0" d="M1046.1,218.6c-0.3-0.6-2.2-3.4-4.2-5.3c-3.1-3.1-10.6-8.9-22.9-8.9c-2.5,0-7.8,0.3-14,3.1
			c-5.9,2.2-20.1,11.2-20.1,30.2c0,19.5,15.1,34.3,34.3,34.3c17,0,24.3-10.6,27.9-15.6h48c-0.6,2.2-4.2,14.5-9.5,23.5
			c-7,11.2-28.2,36.9-67.3,36.9c-5.6,0-17.6-0.6-31-6.4c-29-12.6-47.5-41.9-47.5-72.3c0-12.6,3.4-23.2,4.7-27.1
			c11.4-30.4,40.5-51.4,74.3-51.4c26.8,0,52.2,13.7,66.5,36.9c3.6,5.6,5.9,10.1,9.5,22.3H1046.1z"/>
		<path class="st0" d="M1160.6,116.7v46.1h19.3v35.2h-19.5v115.9h-45.8V197.7h-16.2v-35.2h16.8v-45.8H1160.6z"/>
	</g>
	<g>
		<path class="st1" d="M632.4,34.2C670.1-3.5,734.7,0.1,734.7,0.1s3.6,64.6-34.1,102.3c-37.7,37.7-102.3,34.1-102.3,34.1
			S594.7,71.9,632.4,34.2z"/>
	</g>
</g>
</svg>
