<?xml version="1.0" encoding="utf-8"?>
<!-- Generator: Adobe Illustrator 23.0.2, SVG Export Plug-In . SVG Version: 6.00 Build 0)  -->
<svg version="1.1" id="Lineart" xmlns="http://www.w3.org/2000/svg" xmlns:xlink="http://www.w3.org/1999/xlink" x="0px" y="0px"
	 viewBox="0 0 1200 1200" style="enable-background:new 0 0 1200 1200;" xml:space="preserve">
<style type="text/css">
	.st0{fill:none;stroke:#000000;stroke-linecap:round;stroke-linejoin:round;}
	.st1{fill:none;stroke:#000000;stroke-linecap:round;stroke-miterlimit:10;}
	.st2{fill:none;stroke:#949494;stroke-width:2.39;stroke-linecap:round;stroke-linejoin:round;}
</style>
<title>Artboard 1</title>
<path class="st0" d="M231.8,483.8c-9.9,11.7-17.6,23.7-22.3,35.6"/>
<path class="st0" d="M677.8,477.7c-15.6-13.8-34.4-24.5-51.3-24.5c-28.9,0-29.4,15.3-57.6,15.3c-43.5,0-75.7-72.7-159.3-72.7
	c-38.9,0-83,16-120.4,39.4"/>
<path class="st0" d="M868.2,437.7c-19-12.2-41.2-20-66.3-20c-101.3,0-151.3,116.2-217.6,116.2c-60.8,0-65.5-30.8-140.7-30.8
	c-32.7,0-88.4,27.9-121.9,65.6"/>
<path class="st0" d="M597.8,685.8c-0.4-2-0.6-4-0.5-6.1c0.3-6.5,2.9-11.6,5.8-11.5c1,0.1,1.8,0.7,2.4,1.5"/>
<path class="st1" d="M590.3,737.8c0.7-8.5,4.6-41.7,7.8-53.2"/>
<path d="M542.9,805v194.9H559l18.5-104.3C577.5,895.6,580.1,839.2,542.9,805z"/>
<path d="M596,801.2c0.5,5.6,6.1,107.9,6.1,107.9v93.1l-16.5,1.8l-10.6-99l-32-99.9C547.7,802.3,583.2,797.3,596,801.2z"/>
<path class="st1" d="M595,758.5c3.5,20.2,2.9,40.3,1.1,42.7c-3.8,4.9-49,8.2-53.2,3.8c-3.8-3.9-13.8-73.8,13.6-87.3"/>
<path class="st1" d="M568.8,715.6c9.6,1.3,16.3,10.3,20.7,22.1"/>
<path class="st1" d="M603.9,688.3c-1-2.7-1.4-5.7-1.2-8.6c0.3-6.5,2.9-11.6,5.8-11.5s5,5.5,4.7,12c-0.1,2.8-0.7,5.5-1.9,8.1"/>
<rect x="585.5" y="681.4" transform="matrix(0.9879 -0.1551 0.1551 0.9879 -98.8452 99.3511)" width="3.9" height="3.9"/>
<path class="st0" d="M568.8,708.2v7.2"/>
<path class="st0" d="M566.4,724.2c-3.6,0.9-10,0.4-10-1.7V696"/>
<path class="st1" d="M579.6,678c1.3,3.3,1.9,6.8,1.9,10.3c0,11-5.8,19.9-13,19.9c-2.3,0-4.4-0.9-6.2-2.3"/>
<path class="st0" d="M557.9,695.8c-0.4,0.1-0.8,0.2-1.2,0.2c-2.4,0-4.3-1.9-4.3-4.3c0-2.4,1.9-4.3,4.3-4.3c0.8,0,1.5,0.2,2.2,0.6"/>
<path d="M525.4,718.3L525.4,718.3c6.9,0,12.6,5.6,12.6,12.6v59.5c0,6.9-5.6,12.6-12.6,12.6l0,0c-6.9,0-12.6-5.6-12.6-12.6v-59.5
	C512.8,724,518.4,718.3,525.4,718.3z"/>
<path class="st1" d="M574.8,757.2c-2.6,15.3-15,27-29.9,27c-16.8,0-30.4-14.7-30.4-32.9s13.6-32.9,30.4-32.9
	c9.3,0.1,17.9,4.5,23.4,12"/>
<path class="st0" d="M581,737c4.9,0.3,12.6,0.9,16.3,2.3c0.4-2.5,2.7-38.8,6.5-50.9"/>
<path class="st0" d="M611.3,688.3c0,1.4,8.5,60.9,0,67.9c-6.7,5.5-25.8,0.9-34.4-1.8"/>
<path class="st1" d="M549.7,734.7c2.8-11.5,28.4-1.9,30.7,0.7c2.8,3.1-2.2,20.8-6,21.7C568.1,758.4,546,749.6,549.7,734.7z"/>
<polyline class="st1" points="325.9,849.7 390.1,849.7 266.4,341.6 216,548.6 "/>
<polyline class="st1" points="257.6,734.3 169.6,341.6 45.9,893.9 197.6,893.9 "/>
<line class="st2" x1="170.3" y1="891.4" x2="170.3" y2="395.4"/>
<line class="st2" x1="170.3" y1="559" x2="197.2" y2="529.7"/>
<line class="st2" x1="170.3" y1="698.9" x2="210.7" y2="655"/>
<line class="st2" x1="170.3" y1="845" x2="190" y2="823.5"/>
<line class="st2" x1="170.3" y1="559" x2="143.4" y2="529.7"/>
<line class="st2" x1="170.3" y1="698.9" x2="129.9" y2="655"/>
<line class="st2" x1="170.3" y1="845" x2="107.4" y2="776.7"/>
<path class="st2" d="M258.2,734.3L258.2,734.3c37.4,0,67.7,30.3,67.7,67.7v61.8c0,37.4-30.3,67.7-67.7,67.7h0
	c-37.4,0-67.7-30.3-67.7-67.7V802C190.5,764.6,220.8,734.3,258.2,734.3z"/>
<line class="st2" x1="258.2" y1="982.9" x2="258.2" y2="795.8"/>
<path class="st2" d="M258.2,875.4c37,0,37-22.3,37-56"/>
<path class="st2" d="M258.2,841.3c-25.6,0-25.6-15.5-25.6-38.8"/>
<path class="st0" d="M750.9,849.7h91.9"/>
<path class="st0" d="M921.4,849.7h231V667.6c-0.1-44.8-36.4-81.1-81.3-81.3l0,0c-4.4,0-8.7,0.4-13.1,1.1V377.8
	c0-30.7-24.9-55.6-55.6-55.6l0,0c-30.7,0-55.6,24.9-55.6,55.6v0v44.9c-8.4-2.9-17.2-4.3-26-4.3l0,0c-44.8,0.1-81.2,36.5-81.3,81.3
	V649h-35.4c-30.6,0.1-55.4,24.9-55.5,55.5v129.3c0,5.4,0.8,10.7,2.3,15.8"/>
<path class="st2" d="M1000.2,740.8c91.6,0,91.6-41,91.6-103"/>
<path class="st2" d="M1000.2,795.5c-50.4,0-50.4-22.6-50.4-56.7"/>
<line class="st2" x1="1000.2" y1="849.7" x2="1000.2" y2="364.2"/>
<line class="st2" x1="1000.2" y1="637.8" x2="949.9" y2="587.6"/>
<line class="st2" x1="1000.2" y1="534.2" x2="1030.6" y2="503.8"/>
<path class="st0" d="M750.5,341.6c6.2-25.3-9.3-50.9-34.6-57c-20.1-4.9-41,3.8-51.6,21.5c-18.8-8.5-41-0.1-49.5,18.7
	c-2.2,4.8-3.3,10.1-3.3,15.4c0,0.5,0,1,0,1.5L750.5,341.6z"/>
<path class="st0" d="M291.9,268.3c-6.2-25.3,9.3-50.9,34.6-57c20.1-4.9,41,3.8,51.6,21.5c18.8-8.5,41-0.2,49.5,18.6
	c2.2,4.9,3.3,10.1,3.3,15.5c0,0.5,0,1,0,1.5H291.9z"/>
<path class="st0" d="M1014.1,976.2c-7.1-22.7-44.6-40.1-89.8-40.1c-50.3,0-91,21.5-91,48h163.3"/>
<path class="st0" d="M502.8,1006.9c-12.5,0-22.7,8.8-22.7,19.6h45.5C525.5,1015.7,515.3,1006.9,502.8,1006.9z"/>
<path class="st0" d="M833.3,902.4c-12.6,0-22.7,13-22.7,29.1H856C856,915.5,845.8,902.4,833.3,902.4z"/>
<path class="st0" d="M120.9,974.6c-20,0-36.2,6.5-36.2,14.5H157C157,981.1,140.8,974.6,120.9,974.6z"/>
<path class="st0" d="M1030.6,974.6c-20,0-36.2,6.5-36.2,14.5h72.3C1066.7,981.1,1050.5,974.6,1030.6,974.6z"/>
<path class="st0" d="M882,746.5L882,746.5c24.2,0,43.8,19.6,43.8,43.8v40c0,24.2-19.6,43.8-43.8,43.8h0c-24.2,0-43.8-19.6-43.8-43.8
	v-40C838.2,766.2,857.8,746.5,882,746.5z"/>
<line class="st2" x1="882.1" y1="907.5" x2="882.1" y2="786.4"/>
<path class="st2" d="M882.1,837.9c23.9,0,23.9-14.4,23.9-36.3"/>
<path class="st2" d="M882.1,815.8c-16.6,0-16.6-10-16.6-25.2"/>
<line class="st2" x1="331.7" y1="947.7" x2="412.8" y2="947.7"/>
<line class="st2" x1="668.4" y1="893.9" x2="722.1" y2="893.9"/>
<line class="st2" x1="627.9" y1="907.5" x2="681.6" y2="907.5"/>
<line class="st2" x1="116.9" y1="918.6" x2="170.6" y2="918.6"/>
<line class="st2" x1="748.5" y1="999.2" x2="824.1" y2="999.2"/>
<path class="st1" d="M552.3,685.3c-2.1-1.7-2.3-14,2.9-18.2s20.6-7.5,27.3-13.2"/>
<path class="st1" d="M578,665.1c1.5-1.3,6.3-8.8,7.2-10.8"/>
<path class="st1" d="M582.5,667.9c1.7-2.4,2.9-5.1,3.5-8"/>
<path d="M613.1,680.2c-0.1,1.3-0.2,2.7-0.5,4l8.1-0.7l-2.2-13.2l-6.4,2C612.9,674.9,613.3,677.6,613.1,680.2z"/>
<path d="M602.6,679.7c0.1-1.5,0.3-3,0.6-4.5l-15,4.7l1,6.2l13.7-1.1C602.6,683.3,602.5,681.5,602.6,679.7z"/>
<polyline class="st0" points="544.3,999.9 544.3,1022.5 576.6,1022.5 553.5,1008.2 553.5,999.1 "/>
<polyline class="st0" points="588.8,999.9 588.8,1022.5 621.1,1022.5 598,1008.2 598,999.1 "/>
<path class="st1" d="M574.1,685.3c0,1.2,0.5,4.9,3.1,6.8"/>
<path class="st1" d="M570.5,695.4c0.6,1.2,1.8,1.9,3.1,1.9"/>
</svg>
