<?xml version="1.0" encoding="utf-8"?>
<!-- Generator: Adobe Illustrator 23.0.2, SVG Export Plug-In . SVG Version: 6.00 Build 0)  -->
<svg version="1.1" id="Calque_1" xmlns="http://www.w3.org/2000/svg" xmlns:xlink="http://www.w3.org/1999/xlink" x="0px" y="0px"
	 viewBox="0 0 1792 1792" style="enable-background:new 0 0 1792 1792;" xml:space="preserve">
<style type="text/css">
	.st0{fill:none;}
	.st1{fill:#949494;}
	.st2{fill:url(#SVGID_1_);}
	.st3{fill:url(#SVGID_2_);}
	.st4{fill:url(#SVGID_3_);}
	.st5{fill:none;stroke:#000000;stroke-width:2.5;stroke-linecap:round;stroke-linejoin:round;}
	.st6{fill:#DFDFDF;}
	.st7{fill:#F3F3F3;}
	.st8{fill:#D0D0D0;}
	.st9{fill:#DEDEDE;}
</style>
<pattern  x="296" y="1496" width="12" height="12" patternUnits="userSpaceOnUse" id="New_Pattern" viewBox="2 -14 12 12" style="overflow:visible;">
	<g>
		<rect x="2" y="-14" class="st0" width="12" height="12"/>
		<rect x="2" y="-14" class="st0" width="12" height="12"/>
		<circle class="st1" cx="14" cy="-11" r="2"/>
		<circle class="st1" cx="8" cy="-14" r="2"/>
		<circle class="st1" cx="2" cy="-11" r="2"/>
		<circle class="st1" cx="14" cy="-5" r="2"/>
		<circle class="st1" cx="8" cy="-8" r="2"/>
		<circle class="st1" cx="2" cy="-5" r="2"/>
		<circle class="st1" cx="8" cy="-2" r="2"/>
	</g>
</pattern>
<title>Artboard 1</title>
<g id="Shadows">
	<pattern  id="SVGID_1_" xlink:href="#New_Pattern" patternTransform="matrix(1 0 0 -1 7 -15219)">
	</pattern>
	<path class="st2" d="M1035.6,864.6c-0.9-10.4,10.5-75.8,30.2-87.6c-4.3,2.6-8.8,4.9-13.4,6.9l-9.8-9.1l-6.2-3.9
		c0-2.5,0.3-7.5,0.3-7.5l-2-6.6l-15.7-17.4L990.1,718l-24-14.3l-20.9-6.8l5.2,10.4l17,34.2l11.9,42.3l7.7,49.3l6.7-1.9l16.2,18.8
		l17.5,14.1L1035.6,864.6z"/>
	<pattern  id="SVGID_2_" xlink:href="#New_Pattern" patternTransform="matrix(1 0 0 -1 7 -15219)">
	</pattern>
	<path class="st3" d="M771.7,824.2h12.5l9.6,7.8c-3.8-48.8-1.7-87.4-0.4-94.5l-8.4,15.7l-33.8,43.9l-18.6,16.4l-0.8,9.4L771.7,824.2
		z"/>
	<pattern  id="SVGID_3_" xlink:href="#New_Pattern" patternTransform="matrix(1 0 0 -1 7 -15219)">
	</pattern>
	<path class="st4" d="M797.6,868.9l-2.1,5l-7,8.9l-11.5,1.9h-7.8l-8.3-7l-6.9-15.7l-26.3,5.9v0.1l-1.7,67.6l1.9,81.3l8.3,66.9
		l13.8,11.4c0,0,119.3,1.4,172.9-15C841,1061.2,809.1,957.5,797.6,868.9z"/>
</g>
<g id="Vector">
	<path class="st5" d="M1512.4,615c6.2,4.5,12.1,9.6,17.4,15.1c6-2.9,91.5-56.1,131.4-74.2"/>
	<path class="st5" d="M1652.2,619.6c-46,35.7-122,90.7-138.7,90.7c-14.6,0-31.9-18.8-43.7-34.7"/>
	<path class="st6" d="M1526.9,1505.3l-1.1,8c-1.3,9.2,0.8,18.5,5.9,26.2L1526.9,1505.3z"/>
	<path class="st6" d="M1754.5,300.4l-18.5-2.6l-37.5-5.3l-5.3,37.5l-155.5,1098.7l26.6,17.5l-26.7,100.1c5.6,5.3,12.8,8.6,20.4,9.7
		l18.5,2.6c20.7,2.9,39.9-11.5,42.8-32.2l9.8-69.2l157.7-1114.1l5.3-37.5L1754.5,300.4z"/>
	<polygon class="st7" points="1545.8,1434.1 1564.3,1446.2 1557.9,1470 1625.9,1479.6 1630.6,1446.1 	"/>
	<path class="st8" d="M212.7,325.5l624.6-115.6c65.7-12.2,128.9,31.2,141,97l195.7,1056.7c12.2,65.7-31.2,128.9-97,141l-624.6,115.6
		c-65.7,12.2-128.9-31.2-141-97L115.7,466.5C103.5,400.8,146.9,337.6,212.7,325.5z"/>
	
		<rect x="208.3" y="279.4" transform="matrix(0.9833 -0.1821 0.1821 0.9833 -162.024 110.6355)" class="st8" width="626.5" height="1316.7"/>
	
		<rect x="155.6" y="259.1" transform="matrix(0.9674 -0.2534 0.2534 0.9674 -216.1588 156.8318)" class="st9" width="690.2" height="1316.7"/>
	<path class="st9" d="M1090.7,717.8c-12.5-4.2-21.9-12-21.9-26c0-6,3.4-14.2,8.9-23.5L965.5,240.1c-17-64.6-83.1-103.3-147.7-86.3
		L117.1,337.3c-64.6,17-103.3,83.1-86.3,147.7l272.4,1039.6c17,64.6,83.1,103.3,147.7,86.3l700.7-183.6
		c64.6-17,103.3-83.1,86.3-147.7L1090.7,717.8z"/>
	
		<rect x="853.9" y="159.9" transform="matrix(0.9684 -0.2496 0.2496 0.9684 -176.0198 250.5439)" class="st7" width="92.1" height="1319"/>
	
		<rect x="170.2" y="398.7" transform="matrix(0.9674 -0.2534 0.2534 0.9674 -126.7462 160.7434)" class="st7" width="780.8" height="347.2"/>
	
		<rect x="170.2" y="398.7" transform="matrix(0.9674 -0.2534 0.2534 0.9674 -126.7462 160.7434)" class="st7" width="780.8" height="347.2"/>
	
		<rect x="353.9" y="1340.2" transform="matrix(0.9674 -0.2534 0.2534 0.9674 -346.4298 174.3596)" class="st7" width="299.3" height="183.3"/>
	<polygon class="st7" points="1762.7,175.8 1698.5,292.5 1792,305.7 	"/>
	<polygon class="st6" points="1772.4,218.6 1762.7,175.8 1741.6,214.2 	"/>
	<path class="st5" d="M1420.3,542.3c36.2,4.9,91.2,52.4,93.1,64.5c2,13.3-24,58.9-49.9,72.8"/>
	<path class="st5" d="M1258.1,528.9c13.6-16,30.3-27.2,50.8-31.8"/>
	<path class="st5" d="M1208.9,668.4c0.5-3.5,0.9-7,1.4-10.5"/>
	<path class="st5" d="M1351.1,496.5c156.2,27.4,111.3,370.1,108.6,398.7c-13.8,23.7-233.1,49.8-246.4,35.4
		c-2.6-19.6-14.8-118.4-8.7-216.9"/>
	<path class="st5" d="M1144.5,590.3c-25.7,23.3-75.7,78.4-75.7,101.5c0,26.7,34,30.7,58.5,30.7c30.4,0,77.8-7.7,103.2-15
		c2.5,13.8,12,24.1,23.4,24.1c13.3,0,24-14,24-31.2c0-17.2-10.8-31.2-24-31.2c-2.4,0-4.8,0.5-7,1.4c-0.4-0.6-1.1-1-1.9-1
		c-6.1,0-64.3-2.2-70.4-1.1c4.1-3.5,10.1-9.4,15.7-15"/>
	<path class="st5" d="M1210.4,657.5c-1.8,1.4-4,2.2-6.2,2.5c-14.9,0-66.8-54-61.1-87.5s110.9-57.1,128.4-37.7
		C1298.6,564.8,1234.2,642.5,1210.4,657.5"/>
	<path class="st5" d="M1306.4,441.2c0,0,3,67.8,3,77.4c0,5.9,21,8.7,37.2,7"/>
	<path class="st5" d="M1345.3,476.5c2.4,0.4,4.9,0.5,7.4,0.4c30.9-1.2,54.5-37,52.9-79.9c-0.5-16.7-5.2-33.1-13.8-47.4"/>
	<path class="st5" d="M1299.4,388.4c-9.9,0.6-17.5,9.1-16.9,19c0.6,9.9,9.1,17.5,19,16.9c3.5-0.2,6.9-1.4,9.7-3.5"/>
	<path class="st5" d="M1277.2,398.7c-9.7-6.8-12.2-55.3,11.4-71.5c23-15.9,93.6-27.9,123.6-49.9"/>
	<path class="st5" d="M1393,321.5c6.9-5,28.2-34.2,31.5-42.1"/>
	<path class="st5" d="M1414.1,332.7c7.5-8.1,12.7-22,15-31.4"/>
	<ellipse transform="matrix(0.1454 -0.9894 0.9894 0.1454 778.963 1680.7405)" cx="1362.4" cy="389.5" rx="4.9" ry="4.3"/>
	<path class="st5" d="M1380.7,383.5c0.2,5.3,3.3,19.9,9.3,32.6"/>
	<path class="st5" d="M1370.4,438c-4.4-1-8-4.2-9.6-8.4"/>
	<path d="M1303.2,931L1303.2,931l80.1,587.6h52l24.4-623.4C1451.5,909.3,1370.3,924.3,1303.2,931z"/>
	<path d="M1303.2,1187c11-8.4,54.3-114.3,55.4-123.4c0.9-7.3-20.3-99.4-28.7-135.6c-56,7.1-110.2,9.5-116.6,2.5
		c0,0-29.7,266.9-19.3,296.8c10.4,29.9,304,224.8,304,224.8l27.3-36.4L1303.2,1187z"/>
	<polyline class="st5" points="1520.6,1417.5 1564.3,1446.2 1534.3,1558.4 1519.8,1454.9 1501.8,1443.3 	"/>
	<polyline class="st5" points="1431.3,1518.6 1431.3,1573.8 1323.2,1573.8 1398.6,1537.5 1398.6,1517.1 	"/>
</g>
</svg>
